<?xml version="1.0" encoding="UTF-8"?>
<svg id="Capa_2" data-name="Capa 2" xmlns="http://www.w3.org/2000/svg" viewBox="0 0 612 503.45">
  <defs>
    <style>
      .cls-1 {
        fill: #fff;
      }
    </style>
  </defs>
  <g id="Capa_1-2" data-name="Capa 1">
    <g>
      <path class="cls-1" d="M188.49,452.36h1.25c3.07-.03,4.59-1.26,4.57-3.66-.03-2.33-1.62-3.47-4.78-3.45h-1.1s.07,7.1.07,7.1ZM188.52,455.51l.08,9.15-3.33.03-.22-22.53,3.78-.04c1.86-.02,3.26.1,4.2.36.96.25,1.81.74,2.54,1.46,1.28,1.25,1.93,2.85,1.94,4.78.03,2.06-.64,3.69-1.98,4.92-1.34,1.22-3.17,1.84-5.47,1.87h-1.55Z"/>
      <path class="cls-1" d="M224.41,455.65h0l-3.35-7.63-3.37,7.69,6.72-.06ZM225.8,458.83l-9.47.09-2.41,5.5-3.59.03,10.71-24.06,10.79,23.85-3.64.03-2.38-5.45Z"/>
      <path class="cls-1" d="M249.56,451.77h0l1.24-.02c3.06-.03,4.59-1.24,4.56-3.64-.02-2.33-1.61-3.47-4.77-3.45h-1.11s.07,7.11.07,7.11ZM249.59,454.93l.09,9.15-3.33.03-.23-22.53,3.78-.04c1.86-.02,3.27.1,4.21.35.96.26,1.8.75,2.54,1.47,1.28,1.25,1.94,2.84,1.95,4.76.02,2.07-.64,3.7-1.98,4.93-1.35,1.22-3.18,1.84-5.48,1.86l-1.55.02Z"/>
      <polygon class="cls-1" points="285.93 444.39 277.07 444.48 277.13 449.88 285.74 449.81 285.76 453 277.15 453.08 277.23 460.62 286.09 460.53 286.13 463.72 273.92 463.84 273.7 441.31 285.91 441.19 285.93 444.39"/>
      <polygon class="cls-1" points="305.37 441.01 305.56 460.34 312.06 460.28 312.09 463.47 302.25 463.57 302.03 441.04 305.37 441.01"/>
      <polygon class="cls-1" points="339.03 443.88 330.16 443.96 330.21 449.38 338.81 449.29 338.84 452.49 330.23 452.57 330.3 460.1 339.17 460.01 339.21 463.21 327 463.33 326.79 440.8 338.99 440.68 339.03 443.88"/>
      <path class="cls-1" d="M358.56,450.84h1.05c3.16-.04,4.73-1.29,4.71-3.75-.02-2.31-1.57-3.45-4.65-3.41h-1.19s.07,7.16.07,7.16ZM362.73,453.38l6.94,9.55-4.09.03-6.41-9.15h-.6l.08,9.23-3.33.02-.21-22.53,3.91-.03c2.92-.03,5.03.5,6.34,1.62,1.45,1.23,2.18,2.87,2.21,4.92,0,1.6-.42,2.96-1.31,4.13-.88,1.15-2.06,1.9-3.53,2.23Z"/>
      <path class="cls-1" d="M387.85,440.21h0l.22,22.53-3.34.03-.21-22.53,3.34-.03ZM391.51,434.12l-5.47,4.07-1.6-1.33,4.32-4.75,2.75,2Z"/>
      <path class="cls-1" d="M416.68,453.8h0l-3.36-7.64-3.36,7.7,6.72-.06ZM418.07,456.98l-9.48.09-2.41,5.5-3.59.03,10.71-24.06,10.79,23.85-3.65.03-2.38-5.45Z"/>
      <polygon class="cls-1" points="1.25 502.25 1.02 478.19 17.32 495.23 17.16 479.56 20.5 479.54 20.74 503.45 4.44 486.45 4.58 502.22 1.25 502.25"/>
      <path class="cls-1" d="M38.45,490.57h0c.02,2.49.86,4.53,2.52,6.12,1.65,1.6,3.54,2.38,5.68,2.36,2.32-.02,4.28-.85,5.86-2.51,1.58-1.67,2.36-3.69,2.34-6.07-.02-2.41-.83-4.41-2.42-6.02-1.59-1.61-3.54-2.41-5.84-2.39-2.3.02-4.24.85-5.81,2.51-1.57,1.63-2.34,3.63-2.32,6.01M35.08,490.56c-.04-3.17,1.08-5.91,3.34-8.2,2.25-2.3,4.96-3.47,8.17-3.5,3.15-.03,5.87,1.1,8.14,3.37,2.29,2.28,3.45,5.02,3.48,8.25.03,3.24-1.08,6-3.33,8.28-2.26,2.29-5,3.45-8.23,3.48-2.85.02-5.43-.95-7.73-2.95-2.51-2.2-3.8-5.1-3.83-8.72Z"/>
      <polygon class="cls-1" points="78.7 482.18 78.88 501.51 75.55 501.54 75.36 482.2 70.28 482.25 70.25 479.06 83.74 478.93 83.77 482.13 78.7 482.18"/>
      <path class="cls-1" d="M108.77,492.55h0l-3.36-7.63-3.37,7.7,6.72-.07ZM110.16,495.74l-9.48.09-2.42,5.49-3.59.04,10.72-24.06,10.79,23.85-3.66.04-2.37-5.45Z"/>
      <path class="cls-1" d="M132.44,488.8h1.06c3.16-.04,4.73-1.29,4.71-3.75-.02-2.31-1.57-3.45-4.64-3.42h-1.19s.07,7.16.07,7.16ZM136.63,491.35l6.94,9.54-4.08.04-6.41-9.17h-.6s.09,9.24.09,9.24l-3.33.03-.22-22.53,3.91-.04c2.92-.04,5.04.51,6.35,1.61,1.45,1.23,2.17,2.86,2.2,4.92.01,1.6-.42,2.97-1.31,4.13-.89,1.16-2.06,1.91-3.53,2.24Z"/>
      <rect class="cls-1" x="157.05" y="478.2" width="3.34" height="22.54" transform="translate(-4.78 1.57) rotate(-.56)"/>
      <path class="cls-1" d="M187.64,491.79h0l-3.36-7.63-3.36,7.69,6.72-.06ZM189.03,494.97l-9.47.1-2.42,5.5-3.59.03,10.72-24.05,10.79,23.84-3.65.04-2.37-5.45Z"/>
      <polygon class="cls-1" points="211.21 477.7 211.4 497.04 217.9 496.98 217.92 500.17 208.09 500.26 207.87 477.73 211.21 477.7"/>
      <path class="cls-1" d="M257.32,484.86h0l.26-.21c.47-.37.86-.68,1.16-.95.3-.27.52-.5.66-.69.28-.36.42-.81.41-1.33,0-.6-.2-1.08-.59-1.44-.4-.36-.93-.55-1.59-.54-.59,0-1.1.21-1.51.58-.4.36-.61.83-.6,1.39,0,.66.28,1.31.8,1.95l.84,1.02s.09.12.18.22M256.64,489.17h0l-.19.14c-1.35.98-2.28,1.76-2.77,2.35-.48.59-.71,1.2-.71,1.85,0,.94.38,1.79,1.13,2.56.77.73,1.62,1.1,2.53,1.1,1.29-.01,2.77-.89,4.43-2.63l-4.42-5.38ZM259.27,487.23l4.03,4.87.13-.15c.42-.49.82-.96,1.2-1.42.38-.45.74-.92,1.09-1.39l2.21,2.25c-.26.39-.61.85-1.04,1.37-.44.52-.94,1.11-1.54,1.8l4.14,5.11-4.16.03-2.23-2.74c-2,2.15-4.1,3.24-6.29,3.26-1.96.02-3.63-.6-5-1.87-1.35-1.26-2.03-2.84-2.05-4.73-.02-2.26,1.01-4.13,3.12-5.65l1.44-1.02s.05-.03.1-.07c.04-.03.11-.09.2-.16-1.47-1.57-2.23-3.13-2.24-4.66,0-1.52.46-2.77,1.43-3.72.99-.97,2.26-1.45,3.83-1.47,1.52-.02,2.78.43,3.78,1.35,1,.91,1.51,2.08,1.53,3.49,0,.97-.26,1.86-.79,2.64-.53.8-1.49,1.75-2.89,2.86Z"/>
      <path class="cls-1" d="M317.89,477.88l.04,4.03c-1.94-1.62-3.95-2.43-6.01-2.41-2.28.03-4.18.87-5.73,2.56-1.55,1.67-2.31,3.7-2.29,6.09.02,2.36.83,4.36,2.41,5.96,1.58,1.61,3.51,2.41,5.78,2.38,1.18-.01,2.17-.21,2.99-.61.46-.2.93-.47,1.42-.8.48-.34,1.01-.73,1.54-1.2l.04,4.09c-1.9,1.11-3.9,1.69-6,1.7-3.15.03-5.86-1.06-8.12-3.29-2.24-2.24-3.39-4.96-3.42-8.16-.02-2.87.88-5.44,2.73-7.71,2.27-2.77,5.21-4.18,8.86-4.22,1.98-.02,3.91.52,5.77,1.6"/>
      <path class="cls-1" d="M334.73,487.72h0c.02,2.49.87,4.53,2.52,6.13,1.64,1.59,3.55,2.37,5.69,2.34,2.32-.02,4.27-.85,5.85-2.5,1.58-1.67,2.36-3.69,2.34-6.07-.02-2.4-.84-4.41-2.43-6.01-1.58-1.62-3.52-2.42-5.84-2.4-2.3.02-4.24.86-5.81,2.51-1.57,1.63-2.34,3.63-2.32,6.01M331.36,487.7c-.02-3.17,1.09-5.9,3.35-8.21,2.25-2.29,4.97-3.46,8.16-3.49,3.15-.03,5.87,1.09,8.15,3.37,2.29,2.28,3.45,5.02,3.48,8.25.03,3.24-1.09,6-3.33,8.28-2.27,2.28-5.01,3.45-8.24,3.47-2.85.03-5.43-.96-7.72-2.95-2.52-2.2-3.81-5.11-3.84-8.72Z"/>
      <path class="cls-1" d="M372.29,486.5h1.06c3.16-.04,4.72-1.29,4.7-3.75-.01-2.31-1.56-3.44-4.64-3.42h-1.18s.07,7.17.07,7.17ZM376.47,489.04l6.94,9.53-4.08.04-6.41-9.17h-.6s.09,9.23.09,9.23l-3.34.03-.22-22.53,3.91-.04c2.93-.02,5.05.52,6.35,1.61,1.44,1.23,2.18,2.87,2.2,4.92.02,1.6-.42,2.98-1.31,4.13-.88,1.15-2.06,1.9-3.53,2.23Z"/>
      <path class="cls-1" d="M400.22,486.11h1.25c3.06-.04,4.58-1.26,4.57-3.66-.02-2.33-1.62-3.48-4.78-3.45h-1.1s.06,7.11.06,7.11ZM400.25,489.26l.09,9.15-3.33.03-.22-22.53,3.78-.03c1.85-.03,3.25.1,4.2.35.95.26,1.8.74,2.53,1.46,1.29,1.26,1.93,2.84,1.96,4.77.01,2.07-.64,3.71-1.99,4.93-1.34,1.22-3.16,1.84-5.47,1.86h-1.55Z"/>
      <path class="cls-1" d="M425.28,486.85h0c.02,2.48.86,4.53,2.52,6.11,1.65,1.59,3.54,2.38,5.68,2.35,2.33-.02,4.27-.85,5.85-2.5,1.58-1.67,2.36-3.7,2.34-6.06-.02-2.4-.83-4.41-2.42-6.03-1.58-1.62-3.53-2.42-5.84-2.39-2.3.02-4.24.85-5.8,2.5-1.58,1.63-2.35,3.63-2.33,6.01M421.91,486.84c-.03-3.18,1.08-5.92,3.35-8.21,2.25-2.3,4.97-3.47,8.16-3.5,3.15-.02,5.87,1.1,8.15,3.37,2.28,2.27,3.44,5.02,3.47,8.23.03,3.25-1.08,6-3.33,8.28-2.26,2.29-5.01,3.45-8.24,3.48-2.85.03-5.43-.95-7.72-2.94-2.52-2.2-3.8-5.1-3.84-8.71Z"/>
      <path class="cls-1" d="M462.83,485.62h1.06c3.16-.04,4.73-1.29,4.71-3.75-.02-2.31-1.57-3.45-4.64-3.41h-1.18s.06,7.16.06,7.16ZM467.01,488.17l6.95,9.53-4.08.04-6.41-9.16h-.61s.09,9.23.09,9.23l-3.33.03-.22-22.53,3.9-.04c2.93-.03,5.04.51,6.35,1.62,1.45,1.23,2.19,2.87,2.21,4.92.01,1.6-.43,2.97-1.31,4.12-.88,1.16-2.06,1.91-3.54,2.24Z"/>
      <path class="cls-1" d="M499.11,488.79h0l-3.35-7.63-3.36,7.69,6.72-.06ZM500.5,491.98l-9.47.09-2.41,5.49-3.59.04,10.72-24.06,10.79,23.85-3.66.03-2.37-5.44Z"/>
      <polygon class="cls-1" points="525.48 477.87 525.67 497.2 522.32 497.24 522.14 477.9 517.06 477.95 517.02 474.75 530.52 474.63 530.55 477.82 525.48 477.87"/>
      <rect class="cls-1" x="543.87" y="474.47" width="3.34" height="22.54" transform="translate(-4.65 5.27) rotate(-.55)"/>
      <polygon class="cls-1" points="563.81 474.3 570.08 489.85 576.13 474.18 579.79 474.14 570.09 498.47 560.16 474.33 563.81 474.3"/>
      <path class="cls-1" d="M604.58,487.77h0l-3.36-7.63-3.36,7.7,6.72-.07ZM605.97,490.96l-9.47.09-2.41,5.49-3.59.03,10.71-24.04,10.79,23.84-3.65.04-2.38-5.45Z"/>
      <path class="cls-1" d="M318.03,194.9l-4.9,5.51v-31.32h-32.21v42.93l-5.16-7.9c-10.14-15.56-22.51-27.44-36.93-35.67-2.84,7.15-4.32,14.89-4.32,23.18,0,3.52.32,6.89.85,10.2,5.97,3.85,11.67,8.35,16.98,13.67,18.96,18.82,28.58,41.86,28.58,68.48s-9.62,50.21-28.58,69.16c-18.95,18.96-42.14,28.57-68.93,28.57s-49.74-9.61-68.69-28.57c-18.96-18.94-28.57-42.13-28.57-68.93s9.61-49.92,28.59-68.72c18.94-18.95,42.05-28.55,68.67-28.55,5.48,0,10.75.5,15.92,1.3.35-11.22,2.39-21.8,6.16-31.67-7.03-1.23-14.38-1.86-22.08-1.86-35.58,0-66.38,12.77-91.56,37.92-25.16,25.16-37.92,55.96-37.92,91.57s12.76,66.4,37.92,91.56c25.17,25.33,55.98,38.16,91.56,38.16,39.92,0,70.98-16.62,92.35-49.41l5.16-7.91v50.9h32.21v-39.25l4.9,5.49c1.92,2.16,3.89,4.28,5.97,6.37,26.35,26.34,58.57,39.7,95.8,39.7s69.46-13.36,95.8-39.7c26.34-26.34,39.69-58.57,39.69-95.79v-16.19l-116.37-.1-21.86,32.66h104.42l-.63,3.33c-3.85,20.32-13.39,38.17-28.35,53.03-19.93,20.03-44.38,30.2-72.69,30.2s-52.78-10.17-72.72-30.24c-20.05-19.9-30.22-44.37-30.22-72.69s10.18-52.78,30.25-72.72c3.58-3.61,7.38-6.79,11.26-9.75.51-3.32.83-6.7.83-10.22,0-9.08-1.96-17.69-5.63-25.71-10.53,5.99-20.42,13.46-29.57,22.61-2.08,2.09-4.05,4.21-5.97,6.36"/>
      <path class="cls-1" d="M458.94,189.24c7.26,2.94,16.09,7.97,22.77,12.79l17.68-27.27c-8.69-6.23-18.8-11.74-28.04-15.53-16.45-6.9-33.8-10.4-51.56-10.4-11.63,0-22.7,1.45-33.31,4.05,4.37,10.07,7.01,20.65,7.79,31.64,8.13-2,16.61-3.13,25.52-3.13,13.66,0,26.84,2.64,39.15,7.85"/>
      <path class="cls-1" d="M388.94,191.64c0-15.79-3.88-30.79-11.55-44.6-.92-1.61-1.81-3.07-2.62-4.37l-1.45-2.31,2.79-1.87c9.06-8.37,16.11-21.57,20.69-39.02h-22.35c-4.12,11.33-10.28,20.72-18.33,27.92-7.09,6.39-16.65,11.16-28.43,14.18v21.05c9.95-2.11,17.75-4.69,23.23-7.69l2.42-1.33,1.37,2.4c.46.8.98,1.67,1.56,2.59,5.7,10.24,8.55,21.3,8.55,33.04,0,16.73-5.41,31.37-16,43.67-1.25,1.45-2.54,2.89-3.94,4.28-5.22,5.22-10.93,9.38-17.06,12.56-3.05,8.77-4.76,18.1-5.15,27.93,14.6-4.15,27.71-11.94,39.16-23.38,6.64-6.6,12.05-13.74,16.26-21.39,7.21-13.1,10.86-27.7,10.86-43.67"/>
      <path class="cls-1" d="M204.79,191.64c0,15.96,3.62,30.56,10.78,43.67,4.18,7.65,9.55,14.79,16.14,21.39,12.56,12.55,27.14,20.66,43.45,24.43-.3-9.46-1.87-18.38-4.71-26.75-7.92-3.33-15.14-8.26-21.62-14.81-1.39-1.38-2.67-2.81-3.93-4.26-10.58-12.28-15.98-26.94-15.98-43.67,0-18.72,6.7-34.9,19.91-48.12,7.35-7.47,15.68-12.75,24.74-15.65,5.01-1.62,12.85-3.02,23.97-4.26,18.05-1.96,32.66-8.13,43.43-18.35,11.75-11.04,17.69-25.64,17.69-43.38s-6.09-31.78-18.1-43.79c-12.01-12.01-26.75-18.09-43.79-18.09s-31.6,6.09-43.61,18.09c-12.01,12.01-18.1,26.75-18.1,43.79,0,8.47,1.73,16.77,5.17,24.65.76,1.68,1.67,3.51,2.76,5.47,2.85-1.24,5.3-2.29,7.37-3.16,2.64-1.11,5.48-2.09,8.44-2.91,1.78-.5,3.61-.94,5.51-1.36-3.31-7.11-5.1-14.7-5.32-22.62,0-10.53,3.73-19.56,11.1-26.92,7.37-7.37,16.34-11.1,26.68-11.1s19.49,3.74,26.85,11.1c7.25,7.38,10.92,16.4,10.92,26.85s-3.51,19.48-10.44,26.01c-6.4,6.14-15.22,10.09-26.21,11.73-17.32,2.5-27.72,4.28-30.9,5.31-12.88,3.83-24.73,11.11-35.29,21.66-17.86,17.87-26.92,39.76-26.92,65.06"/>
      <rect class="cls-1" y="459.73" width="164.89" height="3.74"/>
      <rect class="cls-1" x="442.93" y="459.73" width="164.89" height="3.74"/>
    </g>
  </g>
</svg>